<svg id="Camada_1" data-name="Camada 1" xmlns="http://www.w3.org/2000/svg" viewBox="0 0 50 50"><defs><style>.cls-1{opacity:0.2;}.cls-2{fill:#fff;}</style></defs><circle class="cls-1" cx="25" cy="25" r="25"/><path class="cls-2" d="M11,24.14q2-4.79,4-9.56a2.74,2.74,0,0,1,2.71-1.84c3.65,0,7.3-.05,11,0a2.46,2.46,0,0,1,2.71,2.74c0,4.07.06,8.14,0,12.21a3.7,3.7,0,0,1-1,2.22c-2.07,2.22-4.27,4.33-6.41,6.49a2,2,0,0,1-2.5.65,2,2,0,0,1-.93-2.41c.37-1.77.75-3.55,1.16-5.45h-7c-2.45,0-2.88-.29-3.73-2.53Z" transform="translate(0 0)"/><path class="cls-2" d="M39,20.35c0,1.92,0,3.84,0,5.75,0,1.2-.43,1.8-1.72,1.83-3.3.08-3.35.07-3.35-3.27s0-6.63,0-9.95c0-1.64.34-2,2-2H37c1.62,0,1.94.35,2,2C39,16.61,39,18.48,39,20.35Z" transform="translate(0 0)"/></svg>